<?xml version="1.0" standalone="no"?><!DOCTYPE svg PUBLIC "-//W3C//DTD SVG 1.1//EN" "http://www.w3.org/Graphics/SVG/1.1/DTD/svg11.dtd"><svg t="1544027045681" class="icon" style="" viewBox="0 0 1152 1024" version="1.1" xmlns="http://www.w3.org/2000/svg" p-id="5203" xmlns:xlink="http://www.w3.org/1999/xlink" width="225" height="200"><defs><style type="text/css"></style></defs><path d="M416 0c-59.74 0-109.48 41.1-123.6 96.44-1.5-0.04-2.9-0.44-4.4-0.44-70.68 0-128 57.3-128 128 0 9.68 1.28 19.02 3.32 28.08C105.08 276 64 333.14 64 400c0 25.16 6.32 48.64 16.68 69.82C32.68 497.44 0 548.66 0 608c0 66.68 40.84 123.76 98.84 147.78-1.8 9.14-2.84 18.56-2.84 28.22 0 79.52 64.46 144 144 144 8.24 0 16.2-1.1 24.06-2.42C283.22 982.62 336.5 1024 400 1024c79.54 0 144-64.48 144-144V410.9c-21.82 17.96-47.96 30.9-76.72 36.78-9.94 2.04-19.28-5.64-19.28-15.78v-32.36c0-7.14 4.7-13.56 11.6-15.32 48.4-12.32 84.4-55.9 84.4-108.08V128c0-70.7-57.32-128-128-128z m736 608c0-59.34-32.68-110.56-80.68-138.18 10.34-21.18 16.68-44.66 16.68-69.82 0-66.86-41.08-124-99.32-147.92 2.04-9.06 3.32-18.4 3.32-28.08 0-70.7-57.32-128-128-128-1.5 0-2.9 0.4-4.4 0.44C845.48 41.1 795.74 0 736 0c-70.68 0-128 57.3-128 128v148.14c0 52.18 35.98 95.76 84.4 108.08 6.92 1.76 11.6 8.18 11.6 15.32v32.36c0 10.14-9.36 17.82-19.28 15.78-28.76-5.88-54.88-18.82-76.72-36.78V880c0 79.52 64.46 144 144 144 63.5 0 116.78-41.38 135.94-98.42 7.86 1.34 15.82 2.42 24.06 2.42 79.54 0 144-64.48 144-144 0-9.66-1.04-19.08-2.84-28.22 58-24.02 98.84-81.1 98.84-147.78z" fill="#1296db" p-id="5204"></path></svg>