<?xml version="1.0" standalone="no"?><!DOCTYPE svg PUBLIC "-//W3C//DTD SVG 1.1//EN" "http://www.w3.org/Graphics/SVG/1.1/DTD/svg11.dtd"><svg t="1538128351482" class="icon" style="" viewBox="0 0 1024 1024" version="1.1" xmlns="http://www.w3.org/2000/svg" p-id="3203" xmlns:xlink="http://www.w3.org/1999/xlink" width="64" height="64"><defs><style type="text/css"></style></defs><path d="M128 481.28h46.08l15.36-40.96c5.12-10.24 10.24-15.36 15.36-25.6 5.12 0 5.12 0 10.24-5.12 0 0 5.12 0 5.12-5.12 20.48-15.36 40.96-25.6 71.68-25.6H896V312.32c0-25.6-25.6-51.2-56.32-51.2H455.68c-30.72 0-66.56 0-76.8-25.6-5.12-20.48-30.72-51.2-51.2-51.2H76.8c-30.72-5.12-51.2 20.48-51.2 51.2v552.96-5.12l102.4-302.08z" fill="#FFA000" p-id="3204"></path><path d="M286.72 373.76c-25.6 0-51.2 10.24-71.68 30.72l-5.12 5.12-5.12 5.12c-5.12 5.12-10.24 10.24-15.36 20.48l-15.36 46.08h768l5.12-10.24c10.24-30.72 5.12-56.32-15.36-71.68-10.24-10.24-30.72-20.48-51.2-20.48L286.72 373.76z" fill="#FFFFFF" p-id="3205"></path><path d="M947.2 481.28h-819.2l-102.4 302.08v20.48c0 20.48 25.6 35.84 56.32 35.84h757.76c30.72 0 51.2-15.36 56.32-30.72 0-5.12 5.12-10.24 5.12-10.24l97.28-317.44h-51.2zM368.64 670.72c0 5.12 46.08 5.12 30.72 5.12H174.08c-10.24 0-20.48-5.12-20.48-15.36 0-5.12 5.12-15.36 20.48-15.36h179.2c15.36 0 15.36 15.36 15.36 25.6z m97.28-97.28c-5.12 5.12-10.24 5.12-15.36 5.12H225.28c-10.24 0-20.48-5.12-20.48-15.36 0-5.12 5.12-15.36 20.48-15.36h225.28c5.12 0 10.24 0 10.24 5.12l5.12 5.12c5.12 0 5.12 10.24 0 15.36z" fill="#FFCA28" p-id="3206"></path><path d="M465.92 552.96s-5.12-5.12-10.24-5.12H225.28c-15.36 0-20.48 10.24-20.48 15.36 0 10.24 10.24 15.36 20.48 15.36h225.28c5.12 0 10.24 0 15.36-5.12 5.12-5.12 5.12-15.36 0-20.48zM414.72 650.24s-5.12-5.12-10.24-5.12H174.08c-15.36 0-20.48 10.24-20.48 15.36 0 10.24 10.24 15.36 20.48 15.36h225.28c5.12 0 10.24 0 15.36-5.12 5.12-5.12 5.12-15.36 0-20.48z" fill="#FFF8E1" p-id="3207"></path></svg>