<?xml version="1.0" standalone="no"?><!DOCTYPE svg PUBLIC "-//W3C//DTD SVG 1.1//EN" "http://www.w3.org/Graphics/SVG/1.1/DTD/svg11.dtd"><svg t="1730186805169" class="icon" viewBox="0 0 1536 1024" version="1.1" xmlns="http://www.w3.org/2000/svg" p-id="1492" xmlns:xlink="http://www.w3.org/1999/xlink" width="300" height="200"><path d="M380.970667 154.538667c36.010667 0.725333 37.546667 14.122667 57.429333 223.829333 30.506667 321.792 42.922667 366.677333 122.965333 399.573333 46.677333 19.2 117.717333 26.538667 249.173334 26.965334h7.850666c64.896-0.256 351.573333-4.48 485.76-4.864L1322.666667 800a32 32 0 1 1 0 64h-18.432c-133.632 0.426667-420.437333 4.650667-485.973334 4.906667h-7.978666c-139.52-0.426667-216.405333-8.405333-273.237334-31.744-114.133333-46.933333-128.981333-100.778667-162.346666-452.778667l1.578666 16.469333-0.170666 1.621334c-12.928 136.704-22.826667 223.274667-32.512 283.434666l-1.28 7.68c-16.896 101.290667-34.56 136.448-79.445334 165.845334 0.042667 0-23.808 14.976-31.274666 20.181333a32 32 0 0 1-36.522667-52.565333c8.874667-6.186667 33.834667-21.888 32.682667-21.12 27.349333-17.92 37.205333-37.504 51.456-122.88 10.197333-60.970667 20.650667-152.746667 34.901333-304.64 19.669333-209.792 21.205333-223.146667 57.258667-223.872h9.6z" fill="#333333" p-id="1493"></path><path d="M672.426667 256c69.248 0 109.696 30.208 126.293333 75.776l2.176 6.613333a34.133333 34.133333 0 0 1 2.517333 12.757334c0 17.322667-12.928 30.506667-29.525333 33.792-3.797333 0.768-7.04 1.194667-10.581333 1.194666a36.266667 36.266667 0 0 1-35.2-24.832c-6.528-23.296-22.101333-35.754667-55.68-35.754666-36.949333 0-55.04 14.848-55.04 35.84 0 21.034667 8.576 30.293333 41.941333 37.674666l38.826667 7.936c80.384 16.981333 116.352 48.341333 116.352 115.242667 0 67.712-53.461333 113.493333-135.68 113.493333-88.192 0-125.226667-33.92-144.298667-98.645333l-1.152-6.314667-0.042667-2.56c0-17.493333 12.544-30.549333 30.464-34.773333l4.138667-0.64c2.005333-0.298667 3.925333-0.426667 5.930667-0.426667 16.128 0 30.549333 8.96 35.242666 25.429334 9.216 34.261333 23.722667 47.957333 67.584 47.957333 39.893333 0 61.866667-16.853333 61.866667-43.093333 0-23.338667-10.453333-33.664-48.554667-42.282667l-41.514666-8.832C574.805333 456.32 541.866667 424.490667 541.866667 361.386667 541.866667 299.946667 590.762667 256 672.426667 256z m209.877333 3.84c21.418667 0 37.973333 12.8 37.973333 34.56v302.506667c0 21.418667-16.725333 34.56-37.973333 34.56-20.906667 0-37.12-13.312-37.12-34.56V294.4c0-21.632 16.042667-34.56 37.12-34.56z m403.328 0c25.130667 0 43.946667 17.322667 43.946667 42.24V597.333333c0 21.205333-16.085333 34.133333-36.693334 34.133334-20.949333 0-37.12-12.8-37.12-34.133334v-118.186666c0-9.344 0.128-19.157333 0.341334-29.44l0.426666-16.896-1.536 4.010666-66.218666 164.437334c-8.448 20.522667-22.144 30.208-43.093334 30.208-20.821333 0-34.816-9.941333-43.178666-30.805334l-66.730667-167.594666 0.597333 33.109333 0.085334 12.544V597.333333c0 21.376-15.872 34.133333-37.12 34.133334-20.906667 0-36.693333-12.842667-36.693334-34.133334V302.08c0-25.002667 18.901333-42.24 44.373334-42.24 25.258667 0 40.746667 10.581333 49.962666 33.365333l78.506667 196.992c1.706667 4.181333 3.584 9.045333 5.546667 14.293334l5.12 13.909333 7.509333-20.138667L1234.346667 293.973333c9.429333-23.552 25.557333-34.176 51.285333-34.176z" fill="#E06100" p-id="1494"></path></svg>