<?xml version="1.0" standalone="no"?><!DOCTYPE svg PUBLIC "-//W3C//DTD SVG 1.1//EN" "http://www.w3.org/Graphics/SVG/1.1/DTD/svg11.dtd"><svg t="1730187456830" class="icon" viewBox="0 0 1024 1024" version="1.1" xmlns="http://www.w3.org/2000/svg" p-id="2479" xmlns:xlink="http://www.w3.org/1999/xlink" width="200" height="200"><path d="M1024.4 462.6c0-58.9-47.9-106.9-106.9-106.9H664.1V144.2c0-72.6-59-131.6-131.6-131.6H497.2c-72.6 0-131.6 59-131.6 131.6v211.5H106.8C47.9 355.7 0 403.6 0 462.6c0 48.1 32.2 88.4 76 101.8v373c0 47.4 38.5 85.9 85.9 85.9h707.2c47.4 0 85.9-38.5 85.9-85.9V562.3c40.4-15.2 69.4-54 69.4-99.7zM431.7 144.2c0-36.1 29.4-65.5 65.5-65.5h35.3c36.1 0 65.5 29.4 65.5 65.5v211.5H431.7V144.2z m437.4 813H760V821.7c0-18.3-14.8-33-33-33s-33 14.8-33 33v135.5H548.6V821.7c0-18.3-14.8-33-33-33-18.3 0-33 14.8-33 33v135.5H337.1V821.7c0-18.3-14.8-33-33-33-18.3 0-33 14.8-33 33v135.5H161.9c-10.9 0-19.8-8.9-19.8-19.8v-368h746.8v367.9c0 11-8.9 19.9-19.8 19.9z m48.5-453.9H106.8c-22.5 0-40.7-18.3-40.7-40.7 0-22.5 18.3-40.8 40.7-40.8h810.7c22.5 0 40.8 18.3 40.8 40.8 0 22.5-18.3 40.7-40.7 40.7z" fill="#0636FF" p-id="2480"></path></svg>