<?xml version="1.0" standalone="no"?><!DOCTYPE svg PUBLIC "-//W3C//DTD SVG 1.1//EN" "http://www.w3.org/Graphics/SVG/1.1/DTD/svg11.dtd"><svg t="1608895788597" class="icon" viewBox="0 0 1024 1024" version="1.1" xmlns="http://www.w3.org/2000/svg" p-id="1143" xmlns:xlink="http://www.w3.org/1999/xlink" width="200" height="200"><defs><style type="text/css"></style></defs><path d="M723.82464 20.48a81.92 81.92 0 0 1 57.92768 23.99232l187.53536 187.53536A81.92 81.92 0 0 1 993.28 289.93536V942.08a81.92 81.92 0 0 1-81.92 81.92H112.64a81.92 81.92 0 0 1-81.92-81.92V102.4a81.92 81.92 0 0 1 81.92-81.92h611.18464z" fill="#36CFC9" p-id="1144"></path><path d="M174.08 440.32m61.44 0l532.48 0q61.44 0 61.44 61.44l0 337.92q0 61.44-61.44 61.44l-532.48 0q-61.44 0-61.44-61.44l0-337.92q0-61.44 61.44-61.44Z" fill="#B5F5EC" p-id="1145"></path><path d="M174.08 20.48h481.28v174.08a61.44 61.44 0 0 1-61.44 61.44H235.52a61.44 61.44 0 0 1-61.44-61.44V20.48z" fill="#08979C" p-id="1146"></path><path d="M501.76 51.2m30.72 0l0 0q30.72 0 30.72 30.72l0 92.16q0 30.72-30.72 30.72l0 0q-30.72 0-30.72-30.72l0-92.16q0-30.72 30.72-30.72Z" fill="#B5F5EC" p-id="1147"></path><path d="M276.48 604.16a30.72 30.72 0 0 1 30.72-30.72h399.36a30.72 30.72 0 1 1 0 61.44H307.2a30.72 30.72 0 0 1-30.72-30.72zM276.48 757.76a30.72 30.72 0 0 1 30.72-30.72h399.36a30.72 30.72 0 1 1 0 61.44H307.2a30.72 30.72 0 0 1-30.72-30.72z" fill="#08979C" p-id="1148"></path></svg>