<?xml version="1.0" standalone="no"?><!DOCTYPE svg PUBLIC "-//W3C//DTD SVG 1.1//EN" "http://www.w3.org/Graphics/SVG/1.1/DTD/svg11.dtd"><svg t="1582625491977" class="icon" viewBox="0 0 1024 1024" version="1.1" xmlns="http://www.w3.org/2000/svg" p-id="3834" xmlns:xlink="http://www.w3.org/1999/xlink" width="200" height="200"><defs><style type="text/css"></style></defs><path d="M512 533.333333m-106.666667 0a106.666667 106.666667 0 1 0 213.333334 0 106.666667 106.666667 0 1 0-213.333334 0Z" fill="#d81e06" p-id="3835"></path><path d="M853.333333 277.333333h-136.149333l-36.778667-73.536A21.333333 21.333333 0 0 0 661.333333 192H362.666667a21.333333 21.333333 0 0 0-19.072 11.797333L306.794667 277.333333H170.666667a85.418667 85.418667 0 0 0-85.333334 85.333334v384a85.418667 85.418667 0 0 0 85.333334 85.333333h682.666666a85.418667 85.418667 0 0 0 85.333334-85.333333V362.666667a85.418667 85.418667 0 0 0-85.333334-85.333334zM512 682.666667a149.333333 149.333333 0 1 1 149.333333-149.333334 149.504 149.504 0 0 1-149.333333 149.333334z" fill="#d81e06" p-id="3836"></path></svg>