<?xml version="1.0" standalone="no"?><!DOCTYPE svg PUBLIC "-//W3C//DTD SVG 1.1//EN" "http://www.w3.org/Graphics/SVG/1.1/DTD/svg11.dtd"><svg t="1538128663250" class="icon" style="" viewBox="0 0 1024 1024" version="1.1" xmlns="http://www.w3.org/2000/svg" p-id="22071" xmlns:xlink="http://www.w3.org/1999/xlink" width="64" height="64"><defs><style type="text/css"></style></defs><path d="M511.704963 0C230.036736 0 0 229.57574 0 511.704963c0 282.590218 229.57574 512.165958 511.704963 512.165958A512.626954 512.626954 0 0 0 511.704963 0z m-48.404524 195.00108a48.865519 48.865519 0 0 1 97.731038 0v268.299359a48.865519 48.865519 0 0 1-48.865519 48.865519 48.865519 48.865519 0 0 1-48.865519-48.865519V195.00108z m48.865519 633.868761A316.703882 316.703882 0 0 1 390.002161 219.43384v110.177915a218.972844 218.972844 0 1 0 243.866599 0V219.43384a316.703882 316.703882 0 0 1-121.702802 609.436001z" p-id="22072" fill="#d81e06"></path></svg>