<?xml version="1.0" standalone="no"?><!DOCTYPE svg PUBLIC "-//W3C//DTD SVG 1.1//EN" "http://www.w3.org/Graphics/SVG/1.1/DTD/svg11.dtd"><svg t="1582625362692" class="icon" viewBox="0 0 1024 1024" version="1.1" xmlns="http://www.w3.org/2000/svg" p-id="2079" xmlns:xlink="http://www.w3.org/1999/xlink" width="200" height="200"><defs><style type="text/css"></style></defs><path d="M802.133333 85.333333h-580.266666C98.986667 85.333333 0 184.32 0 307.2v409.6c0 122.88 98.986667 221.866667 221.866667 221.866667h580.266666c122.88 0 221.866667-98.986667 221.866667-221.866667V307.2c0-122.88-98.986667-221.866667-221.866667-221.866667zM477.866667 716.8c0 10.24-6.826667 17.066667-17.066667 17.066667h-102.4c-10.24 0-17.066667-6.826667-17.066667-17.066667V341.333333c0-10.24 6.826667-17.066667 17.066667-17.066666h102.4c10.24 0 17.066667 6.826667 17.066667 17.066666v375.466667z m204.8 0c0 10.24-6.826667 17.066667-17.066667 17.066667h-102.4c-10.24 0-17.066667-6.826667-17.066667-17.066667V341.333333c0-10.24 6.826667-17.066667 17.066667-17.066666h102.4c10.24 0 17.066667 6.826667 17.066667 17.066666v375.466667z" fill="" p-id="2080"></path></svg>